<?xml version="1.0" encoding="UTF-8" standalone="no"?>
<svg width="35px" height="32px" viewBox="0 0 35 32" version="1.1" xmlns="http://www.w3.org/2000/svg" xmlns:xlink="http://www.w3.org/1999/xlink">
    <!-- Generator: Sketch 3.7.1 (28215) - http://www.bohemiancoding.com/sketch -->
    <title>240 - Add Window (Flat)</title>
    <desc>Created with Sketch.</desc>
    <defs></defs>
    <g id="Page-1" stroke="none" stroke-width="1" fill="none" fill-rule="evenodd">
        <g id="Artboard-1" transform="translate(-920.000000, -387.000000)">
            <g id="signin-copy-2" transform="translate(891.000000, 181.000000)">
                <g id="Group-5" transform="translate(0.000000, 185.000000)">
                    <g id="Group-7">
                        <g id="Group-6" transform="translate(29.000000, 21.000000)">
                            <g id="240---Add-Window-(Flat)">
                                <g id="Page-1">
                                    <g id="240---Add-Window-(Flat)">
                                        <polygon id="Fill-815" fill="#EDF0F1" points="0 8.2962963 30.1724138 8.2962963 30.1724138 29.037037 0 29.037037"></polygon>
                                        <polygon id="Fill-816" fill="#546A79" points="0 0 30.1724138 0 30.1724138 8.2962963 0 8.2962963"></polygon>
                                        <path d="M6.03448276,4.14814815 C6.03448276,5.13007407 5.22405172,5.92592593 4.22413793,5.92592593 C3.22422414,5.92592593 2.4137931,5.13007407 2.4137931,4.14814815 C2.4137931,3.16622222 3.22422414,2.37037037 4.22413793,2.37037037 C5.22405172,2.37037037 6.03448276,3.16622222 6.03448276,4.14814815" id="Fill-817" fill="#ED7061"></path>
                                        <path d="M11.4655172,4.14814815 C11.4655172,5.13007407 10.6550862,5.92592593 9.65517241,5.92592593 C8.65525862,5.92592593 7.84482759,5.13007407 7.84482759,4.14814815 C7.84482759,3.16622222 8.65525862,2.37037037 9.65517241,2.37037037 C10.6550862,2.37037037 11.4655172,3.16622222 11.4655172,4.14814815" id="Fill-818" fill="#F0C41A"></path>
                                        <path d="M16.8965517,4.14814815 C16.8965517,5.13007407 16.0861207,5.92592593 15.0862069,5.92592593 C14.0862931,5.92592593 13.2758621,5.13007407 13.2758621,4.14814815 C13.2758621,3.16622222 14.0862931,2.37037037 15.0862069,2.37037037 C16.0861207,2.37037037 16.8965517,3.16622222 16.8965517,4.14814815" id="Fill-819" fill="#4FBA6E"></path>
                                        <path d="M35,24.8888889 C35,28.8165926 31.7576724,32 27.7586207,32 C23.759569,32 20.5172414,28.8165926 20.5172414,24.8888889 C20.5172414,20.9617778 23.759569,17.7777778 27.7586207,17.7777778 C31.7576724,17.7777778 35,20.9617778 35,24.8888889" id="Fill-2508" fill="#71C386"></path>
                                        <path d="M31.3793103,24.2962963 L28.362069,24.2962963 L28.362069,21.3333333 C28.362069,21.0062222 28.0917241,20.7407407 27.7586207,20.7407407 C27.4255172,20.7407407 27.1551724,21.0062222 27.1551724,21.3333333 L27.1551724,24.2962963 L24.137931,24.2962963 C23.8048276,24.2962963 23.5344828,24.5617778 23.5344828,24.8888889 C23.5344828,25.216 23.8048276,25.4814815 24.137931,25.4814815 L27.1551724,25.4814815 L27.1551724,28.4444444 C27.1551724,28.7715556 27.4255172,29.037037 27.7586207,29.037037 C28.0917241,29.037037 28.362069,28.7715556 28.362069,28.4444444 L28.362069,25.4814815 L31.3793103,25.4814815 C31.7124138,25.4814815 31.9827586,25.216 31.9827586,24.8888889 C31.9827586,24.5617778 31.7124138,24.2962963 31.3793103,24.2962963" id="Fill-2509" fill="#FFFFFF"></path>
                                    </g>
                                </g>
                            </g>
                        </g>
                    </g>
                </g>
            </g>
        </g>
    </g>
</svg>