<?xml version="1.0" encoding="UTF-8" standalone="no"?>
<svg width="35px" height="32px" viewBox="0 0 35 32" version="1.1" xmlns="http://www.w3.org/2000/svg" xmlns:xlink="http://www.w3.org/1999/xlink">
    <!-- Generator: Sketch 3.7.1 (28215) - http://www.bohemiancoding.com/sketch -->
    <title>229 lock window flat</title>
    <desc>Created with Sketch.</desc>
    <defs></defs>
    <g id="Page-1" stroke="none" stroke-width="1" fill="none" fill-rule="evenodd">
        <g id="Artboard-1" transform="translate(-1023.000000, -387.000000)">
            <g id="signin-copy-2" transform="translate(891.000000, 181.000000)">
                <g id="Group-5" transform="translate(0.000000, 185.000000)">
                    <g id="Group-7">
                        <g id="Group-3" transform="translate(114.000000, 21.000000)">
                            <g id="229-lock-window-flat" transform="translate(18.000000, 0.000000)">
                                <g id="229---Lock-Window-(Flat)">
                                    <g id="Page-1">
                                        <g id="229---Lock-Window-(Flat)">
                                            <polygon id="Fill-870" fill="#EDF0F1" points="0 8.2962963 30.1724138 8.2962963 30.1724138 29.037037 0 29.037037"></polygon>
                                            <polygon id="Fill-871" fill="#546A79" points="0 0 30.1724138 0 30.1724138 8.2962963 0 8.2962963"></polygon>
                                            <path d="M6.03448276,4.14814815 C6.03448276,5.13007407 5.22405172,5.92592593 4.22413793,5.92592593 C3.22422414,5.92592593 2.4137931,5.13007407 2.4137931,4.14814815 C2.4137931,3.16622222 3.22422414,2.37037037 4.22413793,2.37037037 C5.22405172,2.37037037 6.03448276,3.16622222 6.03448276,4.14814815" id="Fill-872" fill="#ED7061"></path>
                                            <path d="M11.4655172,4.14814815 C11.4655172,5.13007407 10.6550862,5.92592593 9.65517241,5.92592593 C8.65525862,5.92592593 7.84482759,5.13007407 7.84482759,4.14814815 C7.84482759,3.16622222 8.65525862,2.37037037 9.65517241,2.37037037 C10.6550862,2.37037037 11.4655172,3.16622222 11.4655172,4.14814815" id="Fill-873" fill="#F0C41A"></path>
                                            <path d="M16.8965517,4.14814815 C16.8965517,5.13007407 16.0861207,5.92592593 15.0862069,5.92592593 C14.0862931,5.92592593 13.2758621,5.13007407 13.2758621,4.14814815 C13.2758621,3.16622222 14.0862931,2.37037037 15.0862069,2.37037037 C16.0861207,2.37037037 16.8965517,3.16622222 16.8965517,4.14814815" id="Fill-874" fill="#4FBA6E"></path>
                                            <g id="Group-14" transform="translate(22.000000, 17.000000)">
                                                <polygon id="Fill-2474" fill="#B1D3F0" points="0.931034483 5.51851852 13 5.51851852 13 15 0.931034483 15"></polygon>
                                                <path d="M8.77586207,9.66666667 C8.77586207,8.68533333 7.96543103,7.88888889 6.96551724,7.88888889 C5.96560345,7.88888889 5.15517241,8.68533333 5.15517241,9.66666667 C5.15517241,10.4477037 5.67051724,11.1031111 6.38318966,11.3425185 C6.37655172,11.3768889 6.36206897,11.4082963 6.36206897,11.4444444 L6.36206897,12.6296296 C6.36206897,12.9567407 6.63241379,13.2222222 6.96551724,13.2222222 C7.29862069,13.2222222 7.56896552,12.9567407 7.56896552,12.6296296 L7.56896552,11.4444444 C7.56896552,11.4082963 7.55448276,11.3768889 7.54784483,11.3425185 C8.26051724,11.1031111 8.77586207,10.4477037 8.77586207,9.66666667" id="Fill-2475" fill="#556080"></path>
                                                <path d="M3.94827586,4.33333333 C3.94827586,2.69955556 5.30181034,1.37037037 6.96551724,1.37037037 C8.62922414,1.37037037 9.98275862,2.69955556 9.98275862,4.33333333 L9.98275862,5.51851852 L11.1896552,5.51851852 L11.1896552,4.33333333 C11.1896552,2.04592593 9.29482759,0.185185185 6.96551724,0.185185185 C4.6362069,0.185185185 2.74137931,2.04592593 2.74137931,4.33333333 L2.74137931,5.51851852 L3.94827586,5.51851852 L3.94827586,4.33333333" id="Fill-2476" fill="#BDC3C7"></path>
                                            </g>
                                        </g>
                                    </g>
                                </g>
                            </g>
                        </g>
                    </g>
                </g>
            </g>
        </g>
    </g>
</svg>