<?xml version="1.0" encoding="UTF-8" standalone="no"?>
<svg width="17px" height="12px" viewBox="0 0 17 12" version="1.1" xmlns="http://www.w3.org/2000/svg" xmlns:xlink="http://www.w3.org/1999/xlink" xmlns:sketch="http://www.bohemiancoding.com/sketch/ns">
    <!-- Generator: Sketch 3.5.2 (25235) - http://www.bohemiancoding.com/sketch -->
    <title>Shape</title>
    <desc>Created with Sketch.</desc>
    <defs></defs>
    <g id="Page-1" stroke="none" stroke-width="1" fill="none" fill-rule="evenodd" sketch:type="MSPage">
        <g id="Artboard-1" sketch:type="MSArtboardGroup" transform="translate(-561.000000, -519.000000)" stroke="#FFFFFF" stroke-width="0.2" fill="#AFB2C3">
            <g id="signin-copy" sketch:type="MSLayerGroup" transform="translate(551.000000, 181.000000)">
                <path d="M14.2666667,346.4 L13.3333333,347.333333 L10,344 L13.3333333,340.666667 L14.2666667,341.6 L12.5333333,343.333333 L19,343.333333 L19,344.666667 L12.5333333,344.666667 L14.2666667,346.4 L14.2666667,346.4 L14.2666667,346.4 Z M25.6666667,338 L16.3333333,338 C15.6,338 15,338.6 15,339.333333 L15,342 L16.3333333,342 L16.3333333,339.333333 L25.6666667,339.333333 L25.6666667,348.666667 L16.3333333,348.666667 L16.3333333,346 L15,346 L15,348.666667 C15,349.4 15.6,350 16.3333333,350 L25.6666667,350 C26.4,350 27,349.4 27,348.666667 L27,339.333333 C27,338.6 26.4,338 25.6666667,338 L25.6666667,338 L25.6666667,338 Z" id="Shape" sketch:type="MSShapeGroup"></path>
            </g>
        </g>
    </g>
</svg>