<?xml version="1.0" encoding="UTF-8" standalone="no"?>
<svg width="12px" height="12px" viewBox="0 0 12 12" version="1.1" xmlns="http://www.w3.org/2000/svg" xmlns:xlink="http://www.w3.org/1999/xlink">
    <!-- Generator: Sketch 3.6.1 (26313) - http://www.bohemiancoding.com/sketch -->
    <title>Group 8</title>
    <desc>Created with Sketch.</desc>
    <defs></defs>
    <g id="Page-1" stroke="none" stroke-width="1" fill="none" fill-rule="evenodd">
        <g id="Artboard-1" transform="translate(-1159.000000, -257.000000)">
            <g id="Group-10" transform="translate(1159.000000, 257.000000)">
                <g id="55-coding-app-flat-copy-2">
                    <g id="55---Coding-App-(Flat)">
                        <g id="Page-1">
                            <g id="55---Coding-App-(Flat)">
                                <g id="19---Earth-(Webby)" transform="translate(0.638889, 0.944444)">
                                    <g id="Group-8">
                                        <path d="M10.4166667,5.20833333 C10.4166667,8.08477011 8.08477011,10.4166667 5.20833333,10.4166667 C2.33189655,10.4166667 0,8.08477011 0,5.20833333 C0,2.33189655 2.33189655,0 5.20833333,0 C8.08477011,0 10.4166667,2.33189655 10.4166667,5.20833333 L10.4166667,5.20833333 L10.4166667,5.20833333 Z" id="Stroke-592" stroke="#AFB2C3" stroke-width="0.5"></path>
                                        <path d="M5.20833333,0 C4.4845546,0 3.79561782,0.147808908 3.16936063,0.414511494 C3.1408046,0.58512931 2.99838362,0.876257184 3.00269397,0.968929598 C3.02280891,0.972880747 4.32686782,-0.360093391 4.16505029,0.539691092 C4.06070402,1.11889368 2.99479167,1.11548132 3.04058908,1.69863506 C4.16056034,2.13775144 4.55118534,0.864762931 5.50233477,0.870150862 C5.81968391,0.871767241 6.63236351,0.370150862 6.78753592,0.472341954 C7.41540948,0.88595546 6.64385776,2.35219109 6.16361351,1.86422414 C5.70168822,1.40211925 5.04238506,2.02604167 5.07201868,2.74640805 C5.3123204,2.75700431 5.41469109,2.06447557 5.63074713,2.29561782 C5.86853448,2.55010776 5.78268678,3.0625 5.45366379,3.18013649 C5.12266523,3.29849138 3.82345546,2.30190374 4.14260057,3.05729167 C4.49353448,3.89565374 3.09141523,4.54346264 4.50682471,4.20545977 C5.17420977,4.04561782 4.95258621,4.55334052 5.26724138,4.79561782 C5.64224138,5.08351293 5.47611351,4.39798851 5.7496408,4.50233477 C6.14744971,4.65625 5.68139368,5.05280172 6.30423851,4.76490661 C7.03502155,4.43157328 6.76059626,4.95132902 6.9841954,5.29112787 C7.40373563,5.92546695 8.43498563,6.53430316 8.97521552,5.69594109 C9.10272989,5.49838362 9.02101293,3.93462644 9.82309626,4.98347701 C10.3324353,5.64996408 10.1576868,4.19630029 10.2264727,3.81465517 C9.6169181,1.61512213 7.6018319,0 5.20833333,0 L5.20833333,0 L5.20833333,0 Z" id="Stroke-1266" fill="#AFB2C3"></path>
                                        <path d="M5.91217672,7.55765086 L4.95150862,6.83800287 L4.30765086,6.86332615 L3.63990661,6.65301724 L3.1169181,6.29256466 L1.93103448,6.56663075 L1.44216954,6.80352011 L0.897988506,7.53645833 L1.09051724,8.39565374 C1.14565374,8.46659483 1.20240661,8.53609914 1.26095546,8.60398707 L2.26831897,9.07435345 L2.94809626,9.16612787 L3.35255029,9.99622845 L3.36458333,10.0797414 C3.9378592,10.296875 4.55890805,10.4166667 5.20833333,10.4166667 C5.65625,10.4166667 6.09105603,10.3600934 6.50574713,10.253592 L6.64242098,9.4375 L7.26364943,8.93336925 L7.52191092,8.12841236 L6.22467672,8.12320402 L5.91217672,7.55765086 L5.91217672,7.55765086 L5.91217672,7.55765086 Z" id="Stroke-1272" fill="#AFB2C3"></path>
                                        <path d="M0.0704022989,6.05908764 C0.0793821839,6.05154454 0.0896192529,6.04436063 0.0977011494,6.03645833 C0.33045977,5.80369971 0.524604885,5.76472701 0.718570402,5.41540948 C0.912715517,5.06609195 0.679777299,5.06609195 0.718570402,4.4840158 C0.757363506,3.90176006 0.679777299,4.17349138 0.718570402,3.55244253 C0.742097701,3.17618534 0.665229885,3.08423132 0.50628592,2.96677443" id="Stroke-1274" stroke="#AFB2C3" stroke-width="0.5" fill="#AFB2C3"></path>
                                    </g>
                                </g>
                            </g>
                        </g>
                    </g>
                </g>
            </g>
        </g>
    </g>
</svg>