<?xml version="1.0" encoding="UTF-8" standalone="no"?>
<svg width="35px" height="32px" viewBox="0 0 35 32" version="1.1" xmlns="http://www.w3.org/2000/svg" xmlns:xlink="http://www.w3.org/1999/xlink">
    <!-- Generator: Sketch 3.7.1 (28215) - http://www.bohemiancoding.com/sketch -->
    <title>227 upload window flat</title>
    <desc>Created with Sketch.</desc>
    <defs></defs>
    <g id="Page-1" stroke="none" stroke-width="1" fill="none" fill-rule="evenodd">
        <g id="Artboard-1" transform="translate(-1125.000000, -387.000000)">
            <g id="signin-copy-2" transform="translate(891.000000, 181.000000)">
                <g id="Group-5" transform="translate(0.000000, 185.000000)">
                    <g id="Group-7">
                        <g id="Group-4" transform="translate(225.000000, 21.000000)">
                            <g id="227-upload-window-flat" transform="translate(9.000000, 0.000000)">
                                <g id="227---Upload-Window-(Flat)">
                                    <g id="Page-1">
                                        <g id="227---Upload-Window-(Flat)">
                                            <polygon id="Fill-880" fill="#EDF0F1" points="0 8.2962963 30.1724138 8.2962963 30.1724138 29.037037 0 29.037037"></polygon>
                                            <polygon id="Fill-881" fill="#546A79" points="0 0 30.1724138 0 30.1724138 8.2962963 0 8.2962963"></polygon>
                                            <path d="M6.03448276,4.14814815 C6.03448276,5.13007407 5.22405172,5.92592593 4.22413793,5.92592593 C3.22422414,5.92592593 2.4137931,5.13007407 2.4137931,4.14814815 C2.4137931,3.16622222 3.22422414,2.37037037 4.22413793,2.37037037 C5.22405172,2.37037037 6.03448276,3.16622222 6.03448276,4.14814815" id="Fill-882" fill="#ED7061"></path>
                                            <path d="M11.4655172,4.14814815 C11.4655172,5.13007407 10.6550862,5.92592593 9.65517241,5.92592593 C8.65525862,5.92592593 7.84482759,5.13007407 7.84482759,4.14814815 C7.84482759,3.16622222 8.65525862,2.37037037 9.65517241,2.37037037 C10.6550862,2.37037037 11.4655172,3.16622222 11.4655172,4.14814815" id="Fill-883" fill="#F0C41A"></path>
                                            <path d="M16.8965517,4.14814815 C16.8965517,5.13007407 16.0861207,5.92592593 15.0862069,5.92592593 C14.0862931,5.92592593 13.2758621,5.13007407 13.2758621,4.14814815 C13.2758621,3.16622222 14.0862931,2.37037037 15.0862069,2.37037037 C16.0861207,2.37037037 16.8965517,3.16622222 16.8965517,4.14814815" id="Fill-884" fill="#4FBA6E"></path>
                                            <polygon id="Fill-2461" fill="#4AA0D8" points="21.7241379 18.962963 35 18.962963 35 32 21.7241379 32"></polygon>
                                            <polygon id="Fill-2462" fill="#FFFFFF" points="27.7586207 22.5185185 28.9655172 22.5185185 28.9655172 32 27.7586207 32"></polygon>
                                            <polyline id="Fill-2463" fill="#FFFFFF" points="31.5561207 26.493037 28.362069 23.3564444 25.1680172 26.493037 24.3147414 25.6551111 28.362069 21.6805926 32.4093966 25.6551111 31.5561207 26.493037"></polyline>
                                        </g>
                                    </g>
                                </g>
                            </g>
                        </g>
                    </g>
                </g>
            </g>
        </g>
    </g>
</svg>