<?xml version="1.0" encoding="UTF-8" standalone="no"?>
<svg width="14px" height="14px" viewBox="0 0 14 14" version="1.1" xmlns="http://www.w3.org/2000/svg" xmlns:xlink="http://www.w3.org/1999/xlink">
    <!-- Generator: Sketch 3.7.1 (28215) - http://www.bohemiancoding.com/sketch -->
    <title>Shape</title>
    <desc>Created with Sketch.</desc>
    <defs></defs>
    <g id="Page-1" stroke="none" stroke-width="1" fill="none" fill-rule="evenodd">
        <g id="Artboard-1" transform="translate(-1168.000000, -190.000000)" stroke="#AFB2C3" stroke-width="0.5">
            <g id="signin-copy-2" transform="translate(891.000000, 181.000000)">
                <path d="M285.375781,10.1348362 C283.299601,9.698973 280.657191,10.2316946 279.170835,13.0405906 L278.463046,10.8854894 C278.41586,10.7644163 278.274303,10.6917724 278.156338,10.715987 C278.038373,10.7644163 277.967594,10.909704 278.01478,11.0307771 L278.887719,13.6701707 C278.887719,13.7670292 278.934905,13.839673 279.005684,13.8881023 L279.005684,13.8881023 C279.005684,13.8881023 279.029277,13.8881023 279.029277,13.9123169 L279.05287,13.9123169 C279.076463,13.9365315 279.123649,13.9365315 279.147242,13.9365315 C279.170835,13.9365315 279.194428,13.9365315 279.218021,13.9123169 L281.907617,12.9921613 C282.025582,12.9437321 282.096361,12.822659 282.049175,12.6773713 C282.001989,12.5562982 281.884024,12.4836543 281.742467,12.5320835 L279.548322,13.2827368 C280.916713,10.6675578 283.346787,10.1832654 285.257817,10.5949139 C287.499147,11.0792063 289.504548,12.9437321 289.504548,16.0916327 C289.504548,19.3363918 287.333996,21.1282737 284.974701,21.4672784 C282.56822,21.806283 279.972995,20.7408398 279.076463,17.5929391 C279.029277,17.471866 278.911312,17.3992222 278.793348,17.4234368 C278.675383,17.471866 278.604604,17.5929391 278.628197,17.7140122 C279.477543,20.7408398 281.978396,22 284.337691,22 C284.6444,22 284.738772,21.9757854 285.04548,21.9273561 C287.617112,21.5641368 290,19.6027526 290,16.0674181 C290,12.6773713 287.782262,10.6433432 285.375781,10.1348362 L285.375781,10.1348362 Z" id="Shape"></path>
            </g>
        </g>
    </g>
</svg>